<?xml version="1.0" encoding="utf-8"?>
<!-- Generator: Adobe Illustrator 27.2.0, SVG Export Plug-In . SVG Version: 6.00 Build 0)  -->
<svg version="1.1" id="Layer_1" xmlns="http://www.w3.org/2000/svg" xmlns:xlink="http://www.w3.org/1999/xlink" x="0px" y="0px"
	 viewBox="0 0 500 500" style="enable-background:new 0 0 500 500;" xml:space="preserve">
<style type="text/css">
	.st0{fill-rule:evenodd;clip-rule:evenodd;fill:#00111D;}
</style>
<path class="st0" d="M424.6,147.6v78.6c-6.3-6.1-12.9-10.6-20-13.6c-7.1-2.9-15.4-4.4-24.8-4.4c-10.7,0-20.6,2-29.8,6.1
	c-6.7,3-12.7,6.8-18.1,11.4c0.6-28.6-13.9-56.6-40.3-71.9c-38.5-22.4-87.8-9.1-110.1,29.7c-0.2,0.3-0.3,0.6-0.5,0.8
	c-6.8-12.3-17-22.9-30-30.5c-38.5-22.4-87.8-9.1-110.1,29.7c-22.3,38.8-9,88.3,29.5,110.7c10.9,6.3,22.7,9.7,34.5,10.6l-35,61.1
	h52.5l58.1-101.3c0.1-0.3,0.2-0.6,0.4-0.9c6.8,12.3,17,22.9,30,30.5c10.9,6.3,22.7,9.7,34.5,10.6l-35,61.1h52.5l41.8-72.8
	c0.4,10.5,2.2,20.2,5.5,29.1c3.7,9.9,9,18.5,15.8,25.7c6.8,7.2,14.8,12.8,24.1,16.9c9.3,4.1,19.5,6.1,30.6,6.1
	c10.5,0,19.3-1.7,26.5-5c7.2-3.3,13.8-8.8,19.8-16.3v16.2h43V147.6H424.6z M142.6,242.6c-10.2,17.7-32.7,23.8-50.3,13.6
	c-17.7-10.3-23.7-32.9-13.5-50.7c10.2-17.7,32.7-23.8,50.3-13.5C146.7,202.2,152.7,224.9,142.6,242.6z M283.1,242.6
	c-10.2,17.7-32.7,23.8-50.3,13.6c-17.7-10.3-23.7-32.9-13.5-50.7c10.2-17.7,32.7-23.8,50.3-13.5
	C287.2,202.2,293.2,224.9,283.1,242.6z M416,317.3c-7.3,7.3-16.6,11-27.9,11c-5.4,0-10.5-1-15.3-2.9c-4.7-1.9-8.8-4.6-12.1-8.1
	c-3.3-3.4-6-7.6-7.9-12.3c-1.9-4.8-2.9-10-2.9-15.7c0-5.5,1-10.6,2.9-15.4c1.9-4.8,4.6-8.8,8-12.2c3.4-3.3,7.5-6,12.3-7.9
	c4.7-1.9,9.9-2.9,15.6-2.9c5.4,0,10.5,1,15.2,2.9c4.6,1.9,8.7,4.6,12.1,8.1c3.4,3.4,6.1,7.5,8,12c1.9,4.6,2.9,9.6,2.9,15.1
	C426.9,300.6,423.2,310,416,317.3z"/>
</svg>
