<svg id="Camada_1" data-name="Camada 1" xmlns="http://www.w3.org/2000/svg" viewBox="0 0 261.4 41.1"><defs><style>.cls-1{fill:#fff;}</style></defs><path class="cls-1" d="M48.1,0H37L20.37,27.71A3.14,3.14,0,0,1,18,29a3.06,3.06,0,0,1-2.62-1.26l2.49,4.09,5.6,9.29Z"/><path class="cls-1" d="M66.35,0H55.25L38.62,27.71A3.14,3.14,0,0,1,36.29,29a3.06,3.06,0,0,1-2.62-1.26l2.49,4.09,5.59,9.29Z"/><path class="cls-1" d="M6.44,23.52A12.85,12.85,0,0,1,0,12.1,12.69,12.69,0,0,1,13,0a15.91,15.91,0,0,1,9.29,3.51,27.26,27.26,0,0,1,5.1,5.66l-5.59,9.3s-5.17-10.81-10-10.39c-2.5.21-4.34,1-5.16,3.81-1.25,4.35,4.4,7.48,6.69,3.84a2.65,2.65,0,0,0-.9-4s5.28.41,4.7,6.31c-.39,4.08-2.55,5.72-4.61,6.35A7.47,7.47,0,0,1,6.44,23.52Z"/><path class="cls-1" d="M82.93,0c.29,0,.42.13.52.45L88.11,17c0,.17.09.23.22.23h.17c.06,0,.16-.06.22-.23L93.16,2.14A2.49,2.49,0,0,1,95.88,0H99.7a2.6,2.6,0,0,1,2.91,2.14L107.17,17c.07.17.16.23.26.23h.16c.1,0,.2-.06.26-.23L112.35.45A.51.51,0,0,1,112.9,0h5.25c.38,0,.42.39.32.87l-5.83,18.91c-.71,2.3-1.49,2.88-2.85,2.88h-4.53c-1.42,0-2.13-.58-2.81-2.88L98.17,5.66c0-.16-.06-.22-.19-.22h-.13c-.13,0-.19.06-.23.22L93.29,19.78c-.72,2.3-1.4,2.88-2.82,2.88h-4.4c-1.65,0-2.4-.52-3.08-2.88L77.46.87c-.16-.48-.1-.87.26-.87Z"/><path class="cls-1" d="M144.14,0a.75.75,0,0,1,.84.84V4.63a.75.75,0,0,1-.84.84H129.73c-2.81,0-3.49.75-3.49,3.66v4.4c0,2.91.68,3.66,3.49,3.66h14.41A.75.75,0,0,1,145,18v3.79a.75.75,0,0,1-.84.84H129.51c-6.64,0-9.17-2.33-9.17-8.55V8.55c0-6.22,2.53-8.55,9.17-8.55Z"/><path class="cls-1" d="M167.31,0c6.64,0,9.16,2.33,9.16,8.55v5.56c0,6.22-2.52,8.55-9.16,8.55h-10.1c-6.63,0-9.16-2.33-9.16-8.55V8.55c0-6.22,2.53-8.55,9.16-8.55ZM153.94,13.66c0,2.95.68,3.69,3.5,3.69h9.64c2.82,0,3.5-.74,3.5-3.69V9c0-2.95-.68-3.66-3.5-3.66h-9.64c-2.82,0-3.5.71-3.5,3.66Z"/><path class="cls-1" d="M203,0a.74.74,0,0,1,.84.84V4.47c0,.58-.26.87-.84.87H187.12c-.88,0-1.26.49-1.26,1.36v.84c0,.91.38,1.36,1.23,1.36h11.65c3.82,0,5.89,2.11,5.89,5.76v2.59c0,3.24-1.94,5.41-6,5.41h-17.8a.75.75,0,0,1-.84-.84V18.19a.74.74,0,0,1,.84-.84h16.64c.9,0,1.29-.52,1.29-1.39v-1c0-.9-.39-1.36-1.26-1.36H185.89c-3.85,0-5.93-2.1-5.93-5.76V5.44c0-3.27,2-5.44,6-5.44Z"/><path class="cls-1" d="M233,0a.75.75,0,0,1,.84.84V4.63a.75.75,0,0,1-.84.84h-9.75V21.82a.75.75,0,0,1-.84.84h-4.17c-.59,0-.88-.29-.88-.84V5.47h-9.71a.74.74,0,0,1-.84-.84V.84a.74.74,0,0,1,.84-.84Z"/><path class="cls-1" d="M247,0c1.94,0,3.07.55,4.3,2.85l10.1,18.93c.3.52.2.88-.45.88H256a.82.82,0,0,1-.84-.45l-2-3.79h-14l-1.95,3.79a.79.79,0,0,1-.84.45h-5c-.61,0-.71-.36-.45-.88l9.94-18.93C242,.55,243.21,0,244.73,0Zm-5.57,14h9.49l-4.34-8.32a.38.38,0,0,0-.36-.22h-.16a.46.46,0,0,0-.39.22Z"/><path class="cls-1" d="M95.16,28.44c4.72,0,6.65,1.57,6.65,5.1V36c0,3.53-1.93,5.1-6.65,5.1H85c-.43,0-.64-.18-.64-.54V29c0-.36.21-.54.64-.54Zm-6.9,9.42a.24.24,0,0,0,.26.27h6.55c2.19,0,2.83-.54,2.83-2.42V33.83c0-1.88-.64-2.41-2.83-2.41H88.52a.23.23,0,0,0-.26.26Z"/><path class="cls-1" d="M134.79,28.44c.38,0,.56.16.56.47v2c0,.33-.18.49-.56.49h-9.41c-1.84,0-2.34.4-2.34,2h11.62c.39,0,.56.15.56.47v1.67c0,.32-.17.47-.56.47H123c0,1.7.48,2.11,2.34,2.11h9.41c.38,0,.56.15.56.47v2c0,.31-.18.47-.56.47h-9.47c-4.4,0-6.08-1.3-6.08-4.78V33.21c0-3.47,1.68-4.77,6.08-4.77Z"/><path class="cls-1" d="M167.76,28.44c.39,0,.56.16.56.47v2c0,.33-.17.49-.56.49H157.27c-.58,0-.84.27-.84.76v.47c0,.51.26.76.81.76H165c2.54,0,3.91,1.18,3.91,3.22v1.45c0,1.81-1.29,3-4,3H153.1c-.36,0-.56-.16-.56-.47v-2c0-.32.2-.47.56-.47h11c.6,0,.85-.29.85-.77v-.58c0-.51-.25-.76-.83-.76h-7.71c-2.56,0-3.93-1.18-3.93-3.22V31.48c0-1.83,1.31-3,4-3Z"/><path class="cls-1" d="M189.64,28.44c.37,0,.56.16.56.47V40.63c0,.31-.19.47-.56.47h-2.79c-.37,0-.56-.16-.56-.47V28.91c0-.31.19-.47.56-.47Z"/><path class="cls-1" d="M224.78,28.44c.39,0,.58.16.58.47V31c0,.31-.19.48-.58.48H214c-1.87,0-2.32.41-2.32,2v2.51c0,1.63.45,2.05,2.32,2.05h6.83c.64,0,.88-.22.88-.82V36.22c0-.18-.09-.26-.28-.26h-5.74c-.38,0-.55-.16-.55-.47V33.86c0-.3.17-.47.55-.47h9c.43,0,.64.19.64.55v4.39c0,2-1,2.77-2.7,2.77h-8.76c-4.4,0-6.08-1.3-6.08-4.78V33.21c0-3.47,1.68-4.77,6.08-4.77Z"/><path class="cls-1" d="M247.41,28.44c1.78,0,2.09.31,2.86,1.25l6.63,8.15a.33.33,0,0,0,.26.13h.17c.13,0,.17,0,.17-.18V28.91c0-.31.18-.47.56-.47h2.69c.36,0,.55.16.55.47v10c0,1.72-.73,2.17-2.21,2.17H256.9c-1.78,0-2.08-.31-2.85-1.25l-6.68-8.16a.29.29,0,0,0-.26-.12h-.17c-.11,0-.17.05-.17.18v8.88c0,.31-.17.47-.56.47h-2.68c-.37,0-.56-.16-.56-.47v-10c0-1.72.71-2.17,2.19-2.17Z"/></svg>