<?xml version="1.0" encoding="utf-8"?>
<!-- Generator: Adobe Illustrator 27.2.0, SVG Export Plug-In . SVG Version: 6.00 Build 0)  -->
<svg version="1.1" id="Camada_1" xmlns="http://www.w3.org/2000/svg" xmlns:xlink="http://www.w3.org/1999/xlink" x="0px" y="0px"
	 viewBox="0 0 261.4 41.1" style="enable-background:new 0 0 261.4 41.1;" xml:space="preserve">
<style type="text/css">
	.st0{fill:#00111D;}
</style>
<path class="st0" d="M48.1,0H37L20.4,27.7c-0.6,0.8-1.4,1.2-2.4,1.3c-1,0-2-0.4-2.6-1.3l2.5,4.1l5.6,9.3L48.1,0z"/>
<path class="st0" d="M66.3,0H55.2L38.6,27.7c-0.5,0.8-1.4,1.2-2.3,1.3c-1,0-2-0.4-2.6-1.3l2.5,4.1l5.6,9.3L66.3,0z"/>
<path class="st0" d="M6.4,23.5C2.4,21.2-0.1,16.8,0,12.1C0.3,5.2,6.1-0.2,13,0c3.4,0.1,6.6,1.4,9.3,3.5c2,1.6,3.7,3.5,5.1,5.7
	l-5.6,9.3c0,0-5.2-10.8-10-10.4c-2.5,0.2-4.3,1-5.2,3.8c-1.2,4.4,4.4,7.5,6.7,3.8c0.9-1.2,0.7-2.8-0.5-3.7c-0.1-0.1-0.3-0.2-0.4-0.3
	c0,0,5.3,0.4,4.7,6.3c-0.4,4.1-2.6,5.7-4.6,6.4C10.5,25,8.2,24.7,6.4,23.5z"/>
<path class="st0" d="M82.9,0c0.3,0,0.4,0.1,0.5,0.4L88.1,17c0,0.2,0.1,0.2,0.2,0.2h0.2c0.1,0,0.2-0.1,0.2-0.2l4.4-14.9
	c0.2-1.3,1.4-2.3,2.7-2.1h3.8c1.4-0.2,2.7,0.8,2.9,2.1l4.6,14.9c0.1,0.2,0.2,0.2,0.3,0.2h0.2c0.1,0,0.2-0.1,0.3-0.2l4.5-16.5
	c0-0.3,0.3-0.5,0.6-0.4h5.2c0.4,0,0.4,0.4,0.3,0.9l-5.8,18.9c-0.7,2.3-1.5,2.9-2.8,2.9h-4.5c-1.4,0-2.1-0.6-2.8-2.9L98.2,5.7
	c0-0.2-0.1-0.2-0.2-0.2h-0.1c-0.1,0-0.2,0.1-0.2,0.2l-4.3,14.1c-0.7,2.3-1.4,2.9-2.8,2.9h-4.4c-1.7,0-2.4-0.5-3.1-2.9L77.5,0.9
	C77.3,0.4,77.4,0,77.7,0H82.9z"/>
<path class="st0" d="M144.1,0c0.4-0.1,0.8,0.2,0.8,0.6c0,0.1,0,0.1,0,0.2v3.8c0.1,0.4-0.2,0.8-0.6,0.8c-0.1,0-0.1,0-0.2,0h-14.4
	c-2.8,0-3.5,0.8-3.5,3.7v4.4c0,2.9,0.7,3.7,3.5,3.7h14.4c0.4-0.1,0.8,0.2,0.9,0.6c0,0.1,0,0.1,0,0.2v3.8c0.1,0.4-0.2,0.8-0.6,0.8
	c-0.1,0-0.1,0-0.2,0h-14.7c-6.6,0-9.2-2.3-9.2-8.6V8.6c0-6.2,2.5-8.6,9.2-8.6H144.1z"/>
<path class="st0" d="M167.3,0c6.6,0,9.2,2.3,9.2,8.6v5.6c0,6.2-2.5,8.5-9.2,8.5h-10.1c-6.6,0-9.2-2.3-9.2-8.6V8.6
	c0-6.2,2.5-8.6,9.2-8.6H167.3z M153.9,13.7c0,3,0.7,3.7,3.5,3.7h9.6c2.8,0,3.5-0.7,3.5-3.7V9c0-2.9-0.7-3.7-3.5-3.7h-9.6
	c-2.8,0-3.5,0.7-3.5,3.7V13.7z"/>
<path class="st0" d="M203,0c0.4-0.1,0.8,0.2,0.8,0.6c0,0.1,0,0.1,0,0.2v3.6c0,0.6-0.3,0.9-0.8,0.9h-15.9c-0.9,0-1.3,0.5-1.3,1.4v0.8
	c0,0.9,0.4,1.4,1.2,1.4h11.6c3.8,0,5.9,2.1,5.9,5.8v2.6c0,3.2-1.9,5.4-6,5.4h-17.8c-0.4,0.1-0.8-0.2-0.8-0.6c0-0.1,0-0.1,0-0.2v-3.6
	c-0.1-0.4,0.2-0.8,0.6-0.8c0.1,0,0.1,0,0.2,0h16.6c0.9,0,1.3-0.5,1.3-1.4v-1c0-0.9-0.4-1.4-1.3-1.4h-11.6c-3.9,0-5.9-2.1-5.9-5.8
	V5.4c0-3.3,2-5.4,6-5.4H203z"/>
<path class="st0" d="M233,0c0.4-0.1,0.8,0.2,0.8,0.6c0,0.1,0,0.1,0,0.2v3.8c0.1,0.4-0.2,0.8-0.6,0.8c-0.1,0-0.1,0-0.2,0h-9.8v16.3
	c0.1,0.4-0.2,0.8-0.6,0.8c-0.1,0-0.1,0-0.2,0h-4.2c-0.6,0-0.9-0.3-0.9-0.8V5.5h-9.7c-0.4,0.1-0.8-0.2-0.8-0.6c0-0.1,0-0.1,0-0.2V0.8
	c-0.1-0.4,0.2-0.8,0.6-0.8c0.1,0,0.1,0,0.2,0H233z"/>
<path class="st0" d="M247,0c1.9,0,3.1,0.6,4.3,2.8l10.1,18.9c0.3,0.5,0.2,0.9-0.5,0.9H256c-0.3,0-0.7-0.1-0.8-0.5l-2-3.8h-14
	l-1.9,3.8c-0.1,0.3-0.5,0.5-0.8,0.5h-5c-0.6,0-0.7-0.4-0.4-0.9l9.9-18.9c1.1-2.3,2.3-2.9,3.9-2.9H247z M241.4,14h9.5l-4.3-8.3
	c-0.1-0.1-0.2-0.2-0.4-0.2h-0.2c-0.2,0-0.3,0.1-0.4,0.2L241.4,14z"/>
<path class="st0" d="M95.2,28.4c4.7,0,6.7,1.6,6.7,5.1V36c0,3.5-1.9,5.1-6.7,5.1H85c-0.4,0-0.6-0.2-0.6-0.5V29
	c0-0.4,0.2-0.5,0.6-0.5L95.2,28.4z M88.3,37.9c0,0.1,0.1,0.3,0.2,0.3c0,0,0,0,0.1,0h6.6c2.2,0,2.8-0.5,2.8-2.4v-1.9
	c0-1.9-0.6-2.4-2.8-2.4h-6.6c-0.1,0-0.2,0.1-0.3,0.2c0,0,0,0,0,0.1L88.3,37.9z"/>
<path class="st0" d="M134.8,28.4c0.4,0,0.6,0.2,0.6,0.5v2c0,0.3-0.2,0.5-0.6,0.5h-9.4c-1.8,0-2.3,0.4-2.3,2h11.6
	c0.4,0,0.6,0.2,0.6,0.5v1.7c0,0.3-0.2,0.5-0.6,0.5H123c0,1.7,0.5,2.1,2.3,2.1h9.4c0.4,0,0.6,0.2,0.6,0.5v2c0,0.3-0.2,0.5-0.6,0.5
	h-9.5c-4.4,0-6.1-1.3-6.1-4.8v-3.1c0-3.5,1.7-4.8,6.1-4.8L134.8,28.4z"/>
<path class="st0" d="M167.8,28.4c0.4,0,0.6,0.2,0.6,0.5v2c0,0.3-0.2,0.5-0.6,0.5h-10.5c-0.6,0-0.8,0.3-0.8,0.8v0.5
	c0,0.5,0.3,0.8,0.8,0.8h7.8c2.5,0,3.9,1.2,3.9,3.2v1.5c0,1.8-1.3,3-4,3h-11.8c-0.4,0-0.6-0.2-0.6-0.5v-2c0-0.3,0.2-0.5,0.6-0.5h11
	c0.6,0,0.9-0.3,0.9-0.8v-0.6c0-0.5-0.2-0.8-0.8-0.8h-7.7c-2.6,0-3.9-1.2-3.9-3.2v-1.3c0-1.8,1.3-3,4-3L167.8,28.4z"/>
<path class="st0" d="M189.6,28.4c0.4,0,0.6,0.2,0.6,0.5v11.7c0,0.3-0.2,0.5-0.6,0.5h-2.8c-0.4,0-0.6-0.2-0.6-0.5V28.9
	c0-0.3,0.2-0.5,0.6-0.5H189.6z"/>
<path class="st0" d="M224.8,28.4c0.4,0,0.6,0.2,0.6,0.5V31c0,0.3-0.2,0.5-0.6,0.5H214c-1.9,0-2.3,0.4-2.3,2V36c0,1.6,0.4,2,2.3,2
	h6.8c0.6,0,0.9-0.2,0.9-0.8v-1c0-0.2-0.1-0.3-0.3-0.3h-5.7c-0.4,0-0.6-0.2-0.6-0.5v-1.6c0-0.3,0.2-0.5,0.6-0.5h9
	c0.4,0,0.6,0.2,0.6,0.5v4.4c0,2-1,2.8-2.7,2.8h-8.8c-4.4,0-6.1-1.3-6.1-4.8v-3.1c0-3.5,1.7-4.8,6.1-4.8L224.8,28.4z"/>
<path class="st0" d="M247.4,28.4c1.8,0,2.1,0.3,2.9,1.2l6.6,8.1c0.1,0.1,0.2,0.1,0.3,0.1h0.2c0.1,0,0.2,0,0.2-0.2v-8.9
	c0-0.3,0.2-0.5,0.6-0.5h2.7c0.4,0,0.5,0.2,0.5,0.5v10c0,1.7-0.7,2.2-2.2,2.2h-2.2c-1.8,0-2.1-0.3-2.9-1.2l-6.7-8.2
	c-0.1-0.1-0.2-0.1-0.3-0.1h-0.2c-0.1,0-0.2,0-0.2,0.2v8.9c0,0.3-0.2,0.5-0.6,0.5h-2.7c-0.4,0-0.6-0.2-0.6-0.5v-10
	c0-1.7,0.7-2.2,2.2-2.2H247.4z"/>
</svg>
