<?xml version="1.0" encoding="UTF-8"?>
<svg id="Camada_2" data-name="Camada 2" xmlns="http://www.w3.org/2000/svg" viewBox="0 0 181.37 181.37">
  <defs>
    <style>
      .cls-1 {
        fill: #fff;
      }

      .cls-2 {
        fill: #00111d;
      }
    </style>
  </defs>
  <g id="Camada_1-2" data-name="Camada 1">
    <circle class="cls-2" cx="90.68" cy="90.68" r="90.68"/>
    <g>
      <path class="cls-1" d="m125.06,49.03h-26.32l-39.43,65.68c-1.31,1.77-3.33,2.87-5.53,3-2.44.11-4.78-1.01-6.21-3l5.9,9.71,13.27,22,58.32-97.39Z"/>
      <path class="cls-1" d="m168.35,49.03h-26.29l-39.47,65.68c-1.31,1.77-3.33,2.87-5.53,3-2.44.11-4.78-1.01-6.21-3l5.9,9.71,13.27,22,58.33-97.39Z"/>
      <path class="cls-1" d="m26.3,104.71c-16.71-10.18-15.24-27.08-15.24-27.08,0-9.19,8.07-28.68,30.75-28.68,6.58,0,16.07,3.21,22,8.33,4.65,3.88,8.73,8.4,12.11,13.43l-13.25,22s-12.25-25.59-23.75-24.6c-5.93.51-10.3,2.29-12.24,9-3,10.32,10.44,17.76,15.85,9.13,4.08-6.5-2.12-9.59-2.12-9.59,0,0,12.51,1,11.15,15-.94,9.67-6.06,13.57-10.94,15-4.83,1.42-10.04.71-14.32-1.94Z"/>
    </g>
  </g>
</svg>